# xmcd
#
# Track frame offsets:
#       150
#       17231
#       34990
#       49639
#       55347
#       62046
#       73722
#       81321
#       87219
#       89423
#       92079
#       106415
#       118421
#       134525
#       146350
#       163294
#
# Disc length: 2478 seconds
#
# Revision: 0
# Processed by: cddbd v1.5PL3 Copyright (c) Steve Scherf et al.
# Submitted via: WaveLab 4.01
#
DISCID=e909ac10
DTITLE=Νατάσα Θεοδωρίδου - Μια διαδρομή Θεσσαλονίκη Αθήνα
DYEAR=2003
DGENRE=Live
TTITLE0=Απόψε φίλα με
TTITLE1=Το παράπονο μου
TTITLE2=’ναψε το τσιγάρο
TTITLE3=Μην περιμένεις πιά
TTITLE4=Λίγο λίγο θα με συνηθίσεις
TTITLE5=Αυτή η νύχτα μένει
TTITLE6=Θεσαλλονίκη μου
TTITLE7=Ζήλεια μου
TTITLE8=Κάτσε καλά
TTITLE9=Κι έλεγες
TTITLE10=Δεν θα ξαναγαπήσω
TTITLE11=Αγριολούλουδο
TTITLE12=Τις δύσκολες στιγμές
TTITLE13=Έντεκα παρά
TTITLE14=Φοβάμαι τα τραγούδια
TTITLE15=Φεγγάρι
EXTD=
EXTT0=
EXTT1=
EXTT2=
EXTT3=
EXTT4=
EXTT5=
EXTT6=
EXTT7=
EXTT8=
EXTT9=
EXTT10=
EXTT11=
EXTT12=
EXTT13=
EXTT14=
EXTT15=
PLAYORDER=
